# Exported from ProBuilder
# http://www.procore3d.com/probuilder
# 12/2/2018 8:42:58 PM

mtllib ./Cube.mtl
o Cube

g Cube
v 60 0 -50
v 46 0 -50
v 60 2 -50
v 46 2 -50
v 46 0 -50
v 46 0 -52
v 46 2 -50
v 46 2 -52
v 46 0 -52
v 60 0 -52
v 46 2 -52
v 60 2 -52
v 60 0 -52
v 60 0 -50
v 60 2 -52
v 60 2 -50
v 56 2 -50
v 50 2 -50
v 56 2 -52
v 50 2 -52
v 60 0 -52
v 46 0 -52
v 60 0 -50
v 46 0 -50
v 60 2 -50
v 46 2 -50
v 56 2 -50
v 50 2 -50
v 60 2 -52
v 60 2 -50
v 56 2 -52
v 56 2 -50
v 46 2 -50
v 46 2 -52
v 50 2 -50
v 50 2 -52
v 46 2 -52
v 60 2 -52
v 50 2 -52
v 56 2 -52

vn 0 0 1
vn 0 0 1
vn 0 0 1
vn 0 0 1
vn -1 0 0
vn -1 0 0
vn -1 0 0
vn -1 0 0
vn 0 0 -1
vn 0 0 -1
vn 0 0 -1
vn 0 0 -1
vn 1 0 0
vn 1 0 0
vn 1 0 0
vn 1 0 0
vn 0 1 0
vn 0 1 0
vn 0 1 0
vn 0 1 0
vn 0 -1 0
vn 0 -1 0
vn 0 -1 0
vn 0 -1 0
vn 0 0 0
vn 0 0 0
vn 0 0 0
vn 0 0 0
vn 0 1 0
vn 0 1 0
vn 0 1 0
vn 0 1 0
vn 0 1 0
vn 0 1 0
vn 0 1 0
vn 0 1 0
vn 0 0 0
vn 0 0 0
vn 0 0 0
vn 0 0 0

vt 3 0
vt -11 0
vt 3 2
vt -11 2
vt 1 0
vt -1 0
vt 1 2
vt -1 2
vt 11 0
vt -3 0
vt 11 2
vt -3 2
vt 1 0
vt -1 0
vt 1 2
vt -1 2
vt 1 1
vt 7 1
vt 1 -1
vt 7 -1
vt 3 -1
vt -11 -1
vt 3 1
vt -11 1
vt 0 0
vt 0 0
vt 0 0
vt 0 0
vt -3 -1
vt -3 1
vt 1 -1
vt 1 1
vt 11 1
vt 11 -1
vt 7 1
vt 7 -1
vt 0 0
vt 0 0
vt 0 0
vt 0 0

g Cube
usemtl wire_177028149_2
f 3/3/3 4/4/4 2/2/2 1/1/1
f 7/7/7 8/8/8 6/6/6 5/5/5
f 11/11/11 12/12/12 10/10/10 9/9/9
f 15/15/15 16/16/16 14/14/14 13/13/13
f 19/19/19 20/20/20 18/18/18 17/17/17
f 23/23/23 24/24/24 22/22/22 21/21/21
f 27/27/27 28/28/28 26/26/26 25/25/25
f 31/31/31 32/32/32 30/30/30 29/29/29
f 35/35/35 36/36/36 34/34/34 33/33/33
f 39/39/39 40/40/40 38/38/38 37/37/37

